<?xml version="1.0" encoding="UTF-8"?>
<svg id="Capa_2" data-name="Capa 2" xmlns="http://www.w3.org/2000/svg" viewBox="0 0 169.02 30.58">
  <g id="Capa_1-2" data-name="Capa 1">
    <g>
      <g>
        <path d="M46.23,14.35l-1.56-3.55h-5.47l-1.6,3.55h-2.36L41.92,0l6.67,14.35h-2.37ZM40.03,8.93h3.85s-1.84-4.39-1.93-4.71c-.08.3-1.91,4.71-1.91,4.71Z"/>
        <path d="M49.9,14.35V0l8.77,8.44c.24.24.48.49.73.76.24.27.5.58.77.91V.55h2.07v14.34l-8.95-8.59c-.24-.23-.47-.48-.69-.74-.22-.26-.44-.53-.64-.81v9.6h-2.06Z"/>
        <path d="M73.05,7.28h5.47c0,.09,0,.23,0,.4.02.45.03.75.03.91,0,1.94-.56,3.45-1.67,4.53-1.11,1.07-2.68,1.61-4.7,1.61-1.13,0-2.14-.17-3.03-.5-.89-.33-1.66-.84-2.33-1.51-.65-.67-1.15-1.45-1.5-2.35s-.52-1.86-.52-2.88.18-2,.53-2.88c.35-.88.88-1.66,1.58-2.33.67-.66,1.46-1.16,2.37-1.51.9-.35,1.87-.52,2.9-.52,1.09,0,2.06.2,2.92.59.86.4,1.62,1,2.3,1.82l-1.64,1.23c-.47-.54-.99-.94-1.57-1.21-.58-.26-1.24-.4-1.96-.4-1.5,0-2.72.48-3.66,1.44s-1.42,2.2-1.42,3.74.47,2.82,1.42,3.79c.95.97,2.17,1.46,3.68,1.46,1.28,0,2.29-.3,3.03-.9.74-.6,1.1-1.41,1.1-2.44v-.2h-3.32v-1.89Z"/>
        <path d="M80.95,14.35V.55h2.24v13.8h-2.24Z"/>
        <path d="M91.45,11.59l1.79-.83c.17.62.48,1.09.93,1.41.45.32,1.03.49,1.73.49.67,0,1.2-.19,1.59-.56s.59-.87.59-1.49c0-.81-.67-1.53-2.02-2.17-.19-.09-.33-.16-.43-.21-1.52-.74-2.53-1.41-3.04-2.01-.51-.6-.76-1.33-.76-2.2,0-1.12.38-2.04,1.15-2.73.76-.7,1.76-1.05,3-1.05,1.02,0,1.87.2,2.55.59.68.39,1.16.96,1.42,1.69l-1.75.91c-.28-.43-.58-.75-.91-.95-.33-.2-.71-.3-1.14-.3-.6,0-1.08.16-1.44.47-.36.31-.53.73-.53,1.26,0,.83.78,1.6,2.34,2.32.12.06.21.1.28.13,1.36.63,2.3,1.24,2.81,1.84.51.6.76,1.35.76,2.25,0,1.31-.41,2.35-1.23,3.12-.82.77-1.94,1.15-3.34,1.15-1.18,0-2.14-.27-2.89-.81-.75-.54-1.24-1.31-1.48-2.32Z"/>
        <path d="M107.3,2.45v11.9h-2.24V2.45h-3.67V.55h9.56v1.9h-3.65Z"/>
        <path d="M114.76,8.17v6.17h-2.1V.55h3.13c.92,0,1.63.06,2.14.18s.94.32,1.3.59c.43.33.76.76.99,1.29.23.53.35,1.11.35,1.73,0,1.11-.27,1.97-.8,2.6-.53.63-1.32,1-2.37,1.13l4.75,6.28h-2.54l-4.59-6.17h-.25ZM114.9,6.43h.41c1.19,0,1.98-.14,2.37-.41.39-.28.58-.77.58-1.47,0-.76-.21-1.3-.63-1.61-.42-.31-1.19-.47-2.32-.47h-.41v3.96Z"/>
        <path d="M132.59,14.35l-1.56-3.55h-5.47l-1.6,3.55h-2.36l6.68-14.35,6.67,14.35h-2.37ZM126.39,8.93h3.85s-1.84-4.39-1.93-4.71c-.08.3-1.91,4.71-1.91,4.71Z"/>
        <path d="M135.86.55h2.22v8.38c0,1.24.29,2.18.86,2.8s1.43.94,2.58.94,1.99-.31,2.57-.94.86-1.56.86-2.8V.55h2.24v8.59c0,1.87-.47,3.26-1.41,4.19-.94.93-2.36,1.39-4.26,1.39s-3.32-.46-4.25-1.39c-.94-.92-1.4-2.32-1.4-4.19V.55Z"/>
        <path d="M149.49,11.59l1.79-.83c.17.62.48,1.09.93,1.41.45.32,1.03.49,1.73.49.67,0,1.2-.19,1.59-.56s.59-.87.59-1.49c0-.81-.67-1.53-2.02-2.17-.19-.09-.33-.16-.43-.21-1.52-.74-2.53-1.41-3.04-2.01-.51-.6-.76-1.33-.76-2.2,0-1.12.38-2.04,1.15-2.73.76-.7,1.76-1.05,3-1.05,1.02,0,1.87.2,2.55.59.68.39,1.16.96,1.42,1.69l-1.75.91c-.28-.43-.58-.75-.91-.95-.33-.2-.71-.3-1.14-.3-.6,0-1.08.16-1.44.47-.36.31-.53.73-.53,1.26,0,.83.78,1.6,2.34,2.32.12.06.21.1.28.13,1.36.63,2.3,1.24,2.81,1.84.51.6.76,1.35.76,2.25,0,1.31-.41,2.35-1.23,3.12-.82.77-1.94,1.15-3.34,1.15-1.18,0-2.14-.27-2.89-.81-.75-.54-1.24-1.31-1.48-2.32Z"/>
        <path d="M160.09,11.59l1.79-.83c.17.62.48,1.09.93,1.41.45.32,1.03.49,1.73.49.67,0,1.2-.19,1.59-.56s.59-.87.59-1.49c0-.81-.67-1.53-2.02-2.17-.19-.09-.33-.16-.43-.21-1.52-.74-2.53-1.41-3.04-2.01-.51-.6-.76-1.33-.76-2.2,0-1.12.38-2.04,1.15-2.73.76-.7,1.76-1.05,3-1.05,1.02,0,1.87.2,2.55.59.68.39,1.16.96,1.42,1.69l-1.75.91c-.28-.43-.58-.75-.91-.95-.33-.2-.71-.3-1.14-.3-.6,0-1.08.16-1.44.47-.36.31-.53.73-.53,1.26,0,.83.78,1.6,2.34,2.32.12.06.21.1.28.13,1.36.63,2.3,1.24,2.81,1.84.51.6.76,1.35.76,2.25,0,1.31-.41,2.35-1.23,3.12-.82.77-1.94,1.15-3.34,1.15-1.18,0-2.14-.27-2.89-.81-.75-.54-1.24-1.31-1.48-2.32Z"/>
      </g>
      <g>
        <path d="M37,22.02c1.17,0,2.19.13,3.12.82,1.02.77,1.61,1.99,1.61,3.39s-.58,2.61-1.69,3.39c-.98.69-1.9.81-3.07.81h-1.74v-8.4h1.76ZM36.52,29.21h.55c.63,0,1.5-.05,2.23-.59.58-.44,1.15-1.25,1.15-2.39s-.53-1.98-1.13-2.42c-.73-.53-1.62-.58-2.24-.58h-.55v5.98Z"/>
        <path d="M43.74,22.13c.45,0,.79.34.79.79s-.34.79-.79.79-.79-.34-.79-.79.34-.79.79-.79ZM44.36,25.12v5.3h-1.23v-5.3h1.23Z"/>
        <path d="M48.24,26.51c-.13-.2-.36-.45-.76-.45-.18,0-.3.06-.38.14-.06.06-.11.16-.11.28,0,.14.06.23.18.3.08.05.15.08.42.21l.63.31c.28.14.54.28.74.49.29.29.39.62.39.98,0,.48-.18.89-.47,1.21-.42.45-.93.59-1.49.59-.34,0-.77-.05-1.15-.34-.3-.23-.55-.59-.68-.97l1.01-.48c.06.18.18.4.29.5.08.08.25.2.54.2.19,0,.39-.06.5-.18.1-.1.18-.26.18-.42s-.05-.28-.16-.4c-.15-.15-.33-.24-.53-.33l-.45-.21c-.24-.11-.53-.25-.73-.45-.28-.26-.38-.55-.38-.89,0-.43.16-.84.44-1.13.24-.25.64-.5,1.3-.5.38,0,.68.08.98.28.18.11.42.31.6.65l-.92.6Z"/>
        <path d="M55.2,29.21c-.23.4-.55.76-.89.97-.43.28-.99.4-1.56.4-.71,0-1.28-.18-1.79-.68-.5-.5-.78-1.23-.78-2.03s.29-1.61.84-2.18c.44-.44,1.02-.72,1.77-.72.84,0,1.38.37,1.7.69.68.71.74,1.69.74,2.24v.15h-3.8c.03.38.19.81.45,1.07.29.29.64.34.94.34.34,0,.59-.08.84-.26.21-.16.38-.38.49-.58l1.03.58ZM53.98,27.05c-.05-.29-.19-.54-.38-.72-.16-.15-.43-.3-.83-.3-.43,0-.71.18-.87.34-.18.16-.31.42-.38.68h2.45Z"/>
        <path d="M56.51,25.12h1.23v.49c.53-.59,1.13-.63,1.44-.63.98,0,1.4.49,1.56.72.2.29.33.65.33,1.47v3.25h-1.23v-2.95c0-1.35-.5-1.38-.97-1.38-.55,0-1.12.08-1.12,1.79v2.54h-1.23v-5.3ZM61.07,23.17c-.2.44-.63,1.08-1.46,1.08-.31,0-.47-.09-.69-.2-.34-.18-.42-.23-.53-.28-.14-.06-.31-.13-.47-.13-.43,0-.59.43-.64.58l-.74-.52c.11-.2.31-.49.53-.68.3-.25.62-.34.88-.34.21,0,.42.05.62.13s.39.18.58.29c.16.1.31.19.52.19.45,0,.63-.49.68-.71l.73.58Z"/>
        <path d="M66.51,25.12h1.23v5.3h-1.23v-.55c-.54.63-1.21.72-1.59.72-1.64,0-2.57-1.36-2.57-2.82,0-1.72,1.18-2.78,2.58-2.78.39,0,1.07.1,1.57.76v-.62ZM63.62,27.79c0,.92.58,1.69,1.47,1.69.78,0,1.5-.57,1.5-1.67s-.72-1.71-1.5-1.71c-.89,0-1.47.76-1.47,1.7Z"/>
        <path d="M73.19,21.24h1.23v9.18h-1.23v-.55c-.54.63-1.21.72-1.59.72-1.64,0-2.57-1.36-2.57-2.82,0-1.72,1.18-2.78,2.58-2.78.39,0,1.07.1,1.57.76v-4.49ZM70.29,27.79c0,.92.58,1.69,1.47,1.69.78,0,1.5-.57,1.5-1.67s-.72-1.71-1.5-1.71c-.89,0-1.47.76-1.47,1.7Z"/>
        <path d="M81.37,27.77c0,1.62-1.23,2.81-2.83,2.81s-2.83-1.18-2.83-2.81,1.23-2.79,2.83-2.79,2.83,1.16,2.83,2.79ZM80.11,27.79c0-1.21-.79-1.7-1.57-1.7s-1.57.49-1.57,1.7c0,1.02.6,1.69,1.57,1.69s1.57-.67,1.57-1.69Z"/>
        <path d="M82.66,25.12h1.23v.48c.14-.16.34-.34.52-.44.24-.14.48-.18.76-.18.3,0,.63.05.97.25l-.5,1.12c-.28-.18-.5-.19-.63-.19-.26,0-.53.04-.77.29-.34.37-.34.87-.34,1.22v2.74h-1.23v-5.3Z"/>
        <path d="M90.46,25.12h1.23v5.3h-1.23v-.55c-.54.63-1.21.72-1.59.72-1.64,0-2.57-1.36-2.57-2.82,0-1.72,1.18-2.78,2.58-2.78.39,0,1.07.1,1.57.76v-.62ZM87.56,27.79c0,.92.58,1.69,1.47,1.69.78,0,1.5-.57,1.5-1.67s-.72-1.71-1.5-1.71c-.89,0-1.47.76-1.47,1.7Z"/>
        <path d="M100.76,26.05h3.46v.06c0,1.44-.43,2.61-1.25,3.4-.87.84-1.9,1.07-2.86,1.07-1.22,0-2.09-.35-2.86-1.15-.82-.84-1.25-1.96-1.25-3.17,0-1.31.53-2.44,1.22-3.13.72-.73,1.86-1.26,3.16-1.26.76,0,1.54.16,2.19.53.69.39,1.12.88,1.36,1.26l-1.02.72c-.25-.35-.63-.73-1.03-.96-.47-.28-.97-.37-1.49-.37-1.1,0-1.8.45-2.22.87-.55.55-.89,1.45-.89,2.35,0,.84.31,1.69.87,2.28.58.62,1.3.84,2.1.84.73,0,1.33-.21,1.88-.74.47-.45.65-.94.71-1.42h-2.09v-1.18Z"/>
        <path d="M105.61,25.12h1.23v.48c.14-.16.34-.34.52-.44.24-.14.48-.18.76-.18.3,0,.63.05.97.25l-.5,1.12c-.28-.18-.5-.19-.63-.19-.26,0-.53.04-.77.29-.34.37-.34.87-.34,1.22v2.74h-1.23v-5.3Z"/>
        <path d="M113.41,25.12h1.23v5.3h-1.23v-.55c-.54.63-1.21.72-1.59.72-1.64,0-2.57-1.36-2.57-2.82,0-1.72,1.18-2.78,2.58-2.78.39,0,1.07.1,1.57.76v-.62ZM110.51,27.79c0,.92.58,1.69,1.47,1.69.78,0,1.5-.57,1.5-1.67s-.72-1.71-1.5-1.71c-.89,0-1.47.76-1.47,1.7ZM113.72,22.5l-1.96,1.81-.68-.43,1.51-1.96,1.13.58Z"/>
        <path d="M117.46,26.25v4.17h-1.23v-4.17h-.43v-1.13h.43v-1.76c0-.5.01-.99.33-1.45.28-.39.82-.82,1.84-.82,1.22,0,1.65.53,1.84.82.31.5.33.94.33,1.45v.36h-1.23v-.23c0-.23.01-.54-.15-.82-.19-.31-.48-.4-.78-.4-.42,0-.65.18-.78.4-.06.1-.15.31-.15.82v1.62h1.33v1.13h-1.33ZM120.56,25.12v5.3h-1.23v-5.3h1.23Z"/>
        <path d="M126.23,26.74c-.57-.55-1.12-.65-1.5-.65-.58,0-.94.24-1.17.47-.23.23-.45.63-.45,1.22s.24,1.03.48,1.27c.28.26.67.43,1.12.43.5,0,1.1-.2,1.52-.68v1.37c-.3.19-.79.42-1.61.42-.88,0-1.51-.25-2.01-.78-.38-.39-.76-1.02-.76-1.99s.42-1.66.81-2.05c.42-.42,1.08-.78,2.13-.78.4,0,.88.06,1.45.38v1.38Z"/>
        <path d="M131.29,25.12h1.23v5.3h-1.23v-.55c-.54.63-1.21.72-1.59.72-1.64,0-2.57-1.36-2.57-2.82,0-1.72,1.18-2.78,2.58-2.78.39,0,1.07.1,1.57.76v-.62ZM128.4,27.79c0,.92.58,1.69,1.47,1.69.78,0,1.5-.57,1.5-1.67s-.72-1.71-1.5-1.71c-.89,0-1.47.76-1.47,1.7Z"/>
      </g>
      <path d="M27.06,28.2L15.94,4.05l-1.86-4.05-1.86,4.05L1.1,28.2l-1.1,2.38h8.89c.15,0,.31,0,.46-.02,1.63-.14,3.05-1.05,3.89-2.36.34-.54.59-1.15.72-1.8.06-.32.1-.65.1-.99,0-.15,0-.3-.02-.45,0,0,0-.02,0-.02,0-.04,0-.08-.01-.11,0,0,0,0,0,0-.06-.44-.37-1.28-.54-1.69-.04-.1-.08-.2-.12-.3,0,0,0,0,0,0-.03-.09-.06-.19-.08-.28-.04-.18-.06-.37-.07-.56,0-.02,0-.04,0-.07,0-.03,0-.05,0-.08,0-.41.11-.81.27-1.16.02-.04.04-.08.07-.12.2-.38.49-.71.84-.96.08-.06.16-.12.24-.18.58-.4,1.29-.63,2.04-.63.14,0,.29,0,.43.02,1.17.14,2.17.83,2.73,1.8h0c.11.19.2.38.27.59l1.05,2.29,2.17,4.7,1.1,2.38h3.72l-1.1-2.38ZM15.97,16.5s-.06,0-.1,0c-2.62.04-4.81,1.74-5.36,4-.09.36-.13.73-.13,1.12,0,.54.09,1.07.26,1.56,0,.02.01.03.02.05,0,0,0,0,0,0l.45,1.62c.06.15.1.31.13.47.03.17.05.35.05.53,0,.36-.03.73-.19,1.03-.43.84-1.4,1.31-2.42,1.31-1.38,0-2.54-.98-2.82-2.28l1.2-2.61.24-.51,1.16-2.53,5.61-12.17,3.87,8.41h-1.98Z"/>
    </g>
  </g>
</svg>