<?xml version="1.0" encoding="UTF-8"?>
<svg id="Capa_2" data-name="Capa 2" xmlns="http://www.w3.org/2000/svg" xmlns:xlink="http://www.w3.org/1999/xlink" viewBox="0 0 138.56 30.73">
  <defs>
    <style>
      .cls-1 {
        fill: #fff;
      }

      .cls-2 {
        fill: url(#Degradado_sin_nombre_32);
      }
    </style>
    <linearGradient id="Degradado_sin_nombre_32" data-name="Degradado sin nombre 32" x1="0" y1="15.36" x2="138.56" y2="15.36" gradientUnits="userSpaceOnUse">
      <stop offset="0" stop-color="#703ecc"/>
      <stop offset="1" stop-color="#30175d"/>
    </linearGradient>
  </defs>
  <g id="Capa_2-2" data-name="Capa 2">
    <g>
      <g>
        <path class="cls-1" d="M55.48,24.89c-2.32.29-4.57-1.91-4.8-4.12-.2-1.95.38-5.15-.17-6.88s-2.98-1.3-3.55.17c-.28,2.8.28,6.05-.05,8.8-.18,1.49-1.12,2.19-2.61,2.04-1.66-.17-2.22-1.59-2.33-3.07-.16-2.14.41-5.96,0-7.78s-2.71-1.51-3.55-.14c-.36,3.44,1.13,8.33-2.48,10.42-.69.4-1.68.83-2.44.43v-5.26c-2.79,7.84-13.28,9.04-17.68,1.95-2.19,4.95-10.46,5.44-13.71,1.42C-1.06,18.94-.77,9.63,3.77,6.68c2.94-1.91,9.1-1.69,11.15,1.42,1.18,1.79.05,4.43-2.1,4.5-1.22.04-.99-.87-1.34-1.66-.92-2.07-4.34-2.32-5.6-.5s-1.2,7.61-.33,9.57c.65,1.47,1.99,1.89,3.51,1.7,2.25-.27,3.17-3.07,5.64-2.98-.34-2.32-.24-4.49.79-6.63.62-1.29,2.78-4.03,4.27-4.13,1.12-.07,1.87.73,1.85,1.84-.04,2.72-2.49,3.65-2.63,6.15-.44,7.84,11.33,7.29,10.39-.28-.31-2.49-2.35-2.96-2.84-4.96-.43-1.75.58-3.3,2.52-2.66.36.12,1.6,1.08,1.92,1.38,1.08,1.03,2.03,2.64,2.47,4.05l.52-1.8c.67-1.32,2.15-2.44,3.67-2.49.14,0,.26-.12.38.08l.07,1.51c.72-.29,1.03-.93,1.77-1.3,1.65-.83,3.82-.82,5.35.26.52.37.5.84,1.36.76.58-.06.6-.45.98-.68,2.35-1.42,5.97-1.36,7.26,1.42.19.41.68,2.08.68,2.47v11.17Z"/>
        <path class="cls-1" d="M55.92,13.42c.24-2.27,2.19-4.26,4.51-4.04l.13,1.11c2.71-2.57,6.89-1.7,8.5,1.62s1.41,10.63-2.6,12.45c-1.96.89-4.2.6-5.75-.88v3.22c0,.96-1.44,2.64-2.26,3.13-.33.2-2.54,1.09-2.54.46V13.42ZM64.27,20.79c1.29-1.22,1.41-6.71-.26-7.66-1-.56-3.04-.24-3.28,1.04-.11.62-.11,5.25.03,5.8.32,1.28,2.53,1.73,3.51.81Z"/>
        <path class="cls-1" d="M79.78,24.72l-.17-1.48c-2.98,3.07-8.07,2.37-8.93-2.24-.41-2.2-.23-5.32-.22-7.57,0-.62-.08-4.37.15-4.51,5.25.42,4.84,5.15,4.81,9.16,0,.45-.18.8-.14,1.32.2,2.59,3.79,2.01,4.15.44.17-.73-.11-1.37-.12-2.06-.06-2.92,0-5.87.08-8.78.09-.14.98,0,1.17.04,1.6.37,2.99,1.71,3.46,3.29s.43,7.59.03,9.12c-.48,1.84-2.3,3.43-4.26,3.28Z"/>
        <path class="cls-1" d="M98.2,19.19c.2,6.63-9.53,7.88-12.41,2.6-1.56-2.87-1.48-7.85.57-10.46s6.59-3.14,9.34-1.4c2.92,1.84,1.49,5.76-1.86,5.31-.17-1.55-1.01-2.96-2.8-2.37-1.9.63-1.73,5.07-1.32,6.64.67,2.58,3.97,2.3,3.98-.31h4.5Z"/>
        <path class="cls-1" d="M103.6,25.04c-2.36.24-4.02-.89-4.8-3.07,0,0,0-19.26,0-19.26,1.93-.23,3.77,1.05,4.46,2.81.07.18.34,1.05.34,1.16v18.36Z"/>
        <path class="cls-1" d="M109.14,9.15v11.92c0,.14-.37,1.12-.48,1.32-.79,1.56-2.54,2.72-4.32,2.65v-11.62c0-.24.4-1.42.54-1.71.72-1.52,2.54-2.77,4.26-2.56Z"/>
        <path class="cls-1" d="M22.19,5.92c.14-.51,2.57-.47,3.07-.37s.5.58.53.97c.17,1.89.18,5.79,0,7.66-.04.46-.16.86-.69.96-.46.09-2.92.14-2.92-.52V5.92Z"/>
        <path class="cls-1" d="M106.11,2.59c4.09-.7,4.45,4.85.71,4.92-3.42.06-3.64-4.42-.71-4.92Z"/>
        <g>
          <path class="cls-1" d="M122.94,19.19s-.37-11.43.24-11.54l15.13,14.07c.54.67.18,1.68-.74,1.65-2.52-.43-5.37-1.61-7.85-1.9-.7-.08-.8-.05-1.21.51-1.33,1.84-2.43,4.66-3.86,6.33-.56.66-1.57.72-1.7-.22-.19-1.39-.13-4.02-.13-5.53,0-.23.15-.44.11-.68-.87,1.23-1.77,2.17-3.22,2.7-7.56,2.78-11.66-5.14-9.14-11.54,1.69-4.29,8.52-5.69,11.32-2.29,1.66,2.03-.42,5.19-2.93,4.39.02-2.8-3.3-3.43-4.04-.61-.36,1.36-.39,4.61.35,5.81,1.06,1.73,3.87.89,3.63-1.16h4.05Z"/>
          <path class="cls-1" d="M123.09,0c2.42.19,4.13.17,4.35,3.07.12,1.57.17,4.79,0,6.31-.12,1.04-.94.19-1.36-.16-.97-.8-1.92-1.96-2.92-2.78-.24-1.39-.41-5.66-.07-6.44Z"/>
          <path class="cls-1" d="M137.93,6.3l-6.83,7.05c-.65.06-2.02-1.78-2.7-2.09l-.22-.53.15-.32c.88-.54,3.52-4.11,4.28-4.11h5.32Z"/>
        </g>
      </g>
      <g>
        <path class="cls-2" d="M55.48,24.89c-2.32.29-4.57-1.91-4.8-4.12-.2-1.95.38-5.15-.17-6.88s-2.98-1.3-3.55.17c-.28,2.8.28,6.05-.05,8.8-.18,1.49-1.12,2.19-2.61,2.04-1.66-.17-2.22-1.59-2.33-3.07-.16-2.14.41-5.96,0-7.78s-2.71-1.51-3.55-.14c-.36,3.44,1.13,8.33-2.48,10.42-.69.4-1.68.83-2.44.43v-5.26c-2.79,7.84-13.28,9.04-17.68,1.95-2.19,4.95-10.46,5.44-13.71,1.42C-1.06,18.94-.77,9.63,3.77,6.68c2.94-1.91,9.1-1.69,11.15,1.42,1.18,1.79.05,4.43-2.1,4.5-1.22.04-.99-.87-1.34-1.66-.92-2.07-4.34-2.32-5.6-.5s-1.2,7.61-.33,9.57c.65,1.47,1.99,1.89,3.51,1.7,2.25-.27,3.17-3.07,5.64-2.98-.34-2.32-.24-4.49.79-6.63.62-1.29,2.78-4.03,4.27-4.13,1.12-.07,1.87.73,1.85,1.84-.04,2.72-2.49,3.65-2.63,6.15-.44,7.84,11.33,7.29,10.39-.28-.31-2.49-2.35-2.96-2.84-4.96-.43-1.75.58-3.3,2.52-2.66.36.12,1.6,1.08,1.92,1.38,1.08,1.03,2.03,2.64,2.47,4.05l.52-1.8c.67-1.32,2.15-2.44,3.67-2.49.14,0,.26-.12.38.08l.07,1.51c.72-.29,1.03-.93,1.77-1.3,1.65-.83,3.82-.82,5.35.26.52.37.5.84,1.36.76.58-.06.6-.45.98-.68,2.35-1.42,5.97-1.36,7.26,1.42.19.41.68,2.08.68,2.47v11.17Z"/>
        <path class="cls-2" d="M55.92,13.42c.24-2.27,2.19-4.26,4.51-4.04l.13,1.11c2.71-2.57,6.89-1.7,8.5,1.62s1.41,10.63-2.6,12.45c-1.96.89-4.2.6-5.75-.88v3.22c0,.96-1.44,2.64-2.26,3.13-.33.2-2.54,1.09-2.54.46V13.42ZM64.27,20.79c1.29-1.22,1.41-6.71-.26-7.66-1-.56-3.04-.24-3.28,1.04-.11.62-.11,5.25.03,5.8.32,1.28,2.53,1.73,3.51.81Z"/>
        <path class="cls-2" d="M79.78,24.72l-.17-1.48c-2.98,3.07-8.07,2.37-8.93-2.24-.41-2.2-.23-5.32-.22-7.57,0-.62-.08-4.37.15-4.51,5.25.42,4.84,5.15,4.81,9.16,0,.45-.18.8-.14,1.32.2,2.59,3.79,2.01,4.15.44.17-.73-.11-1.37-.12-2.06-.06-2.92,0-5.87.08-8.78.09-.14.98,0,1.17.04,1.6.37,2.99,1.71,3.46,3.29s.43,7.59.03,9.12c-.48,1.84-2.3,3.43-4.26,3.28Z"/>
        <path class="cls-2" d="M98.2,19.19c.2,6.63-9.53,7.88-12.41,2.6-1.56-2.87-1.48-7.85.57-10.46s6.59-3.14,9.34-1.4c2.92,1.84,1.49,5.76-1.86,5.31-.17-1.55-1.01-2.96-2.8-2.37-1.9.63-1.73,5.07-1.32,6.64.67,2.58,3.97,2.3,3.98-.31h4.5Z"/>
        <path class="cls-2" d="M103.6,25.04c-2.36.24-4.02-.89-4.8-3.07,0,0,0-19.26,0-19.26,1.93-.23,3.77,1.05,4.46,2.81.07.18.34,1.05.34,1.16v18.36Z"/>
        <path class="cls-2" d="M109.14,9.15v11.92c0,.14-.37,1.12-.48,1.32-.79,1.56-2.54,2.72-4.32,2.65v-11.62c0-.24.4-1.42.54-1.71.72-1.52,2.54-2.77,4.26-2.56Z"/>
        <path class="cls-2" d="M22.19,5.92c.14-.51,2.57-.47,3.07-.37s.5.58.53.97c.17,1.89.18,5.79,0,7.66-.04.46-.16.86-.69.96-.46.09-2.92.14-2.92-.52V5.92Z"/>
        <path class="cls-2" d="M106.11,2.59c4.09-.7,4.45,4.85.71,4.92-3.42.06-3.64-4.42-.71-4.92Z"/>
        <g>
          <path class="cls-2" d="M122.94,19.19s-.37-11.43.24-11.54l15.13,14.07c.54.67.18,1.68-.74,1.65-2.52-.43-5.37-1.61-7.85-1.9-.7-.08-.8-.05-1.21.51-1.33,1.84-2.43,4.66-3.86,6.33-.56.66-1.57.72-1.7-.22-.19-1.39-.13-4.02-.13-5.53,0-.23.15-.44.11-.68-.87,1.23-1.77,2.17-3.22,2.7-7.56,2.78-11.66-5.14-9.14-11.54,1.69-4.29,8.52-5.69,11.32-2.29,1.66,2.03-.42,5.19-2.93,4.39.02-2.8-3.3-3.43-4.04-.61-.36,1.36-.39,4.61.35,5.81,1.06,1.73,3.87.89,3.63-1.16h4.05Z"/>
          <path class="cls-2" d="M123.09,0c2.42.19,4.13.17,4.35,3.07.12,1.57.17,4.79,0,6.31-.12,1.04-.94.19-1.36-.16-.97-.8-1.92-1.96-2.92-2.78-.24-1.39-.41-5.66-.07-6.44Z"/>
          <path class="cls-2" d="M137.93,6.3l-6.83,7.05c-.65.06-2.02-1.78-2.7-2.09l-.22-.53.15-.32c.88-.54,3.52-4.11,4.28-4.11h5.32Z"/>
        </g>
      </g>
    </g>
  </g>
</svg>